<?xml version="1.0" encoding="UTF-8" standalone="no"?>
<!DOCTYPE svg PUBLIC "-//W3C//DTD SVG 1.1//EN" "http://www.w3.org/Graphics/SVG/1.1/DTD/svg11.dtd">
<svg width="100%" height="100%" viewBox="0 0 1440 400" version="1.1" xmlns="http://www.w3.org/2000/svg" xmlns:xlink="http://www.w3.org/1999/xlink" xml:space="preserve" xmlns:serif="http://www.serif.com/" style="fill-rule:evenodd;clip-rule:evenodd;stroke-linejoin:round;stroke-miterlimit:2;">
    <g transform="matrix(4.5416,0,0,4.5416,-1078.47,-12347)">
        <g transform="matrix(1,0,0,1,0.440374,0)">
            <g opacity="0.6">
                <g transform="matrix(1,0,0,1,418.656,2786.94)">
                    <path d="M0,-0.252L3.194,-4.053L4.306,-3.409L1.607,-0.14L4.306,3.138L3.194,3.801L0,-0L0,-0.252Z" style="fill:white;fill-rule:nonzero;"/>
                </g>
                <g transform="matrix(-0.505192,0.863007,0.863007,0.505192,436.726,2792.46)">
                    <path d="M-9.859,-4.501L1.907,-4.501L2.581,-5.653L-9.192,-5.641L-9.859,-4.501Z" style="fill:white;fill-rule:nonzero;"/>
                </g>
                <g transform="matrix(1,0,0,1,445.772,2785.26)">
                    <path d="M0,5.46C0.593,5.46 1.069,5.294 1.427,4.963C1.786,4.632 1.965,4.168 1.965,3.57L1.965,2.904L0.979,2.945C0.211,2.973 -0.349,3.101 -0.698,3.331C-1.047,3.56 -1.222,3.91 -1.222,4.383C-1.222,4.725 -1.121,4.99 -0.917,5.178C-0.713,5.365 -0.408,5.46 0,5.46M2.431,6.57L2.104,5.5L2.049,5.5C1.679,5.968 1.306,6.287 0.931,6.455C0.556,6.625 0.074,6.709 -0.513,6.709C-1.268,6.709 -1.857,6.506 -2.281,6.098C-2.705,5.69 -2.916,5.114 -2.916,4.368C-2.916,3.578 -2.623,2.98 -2.034,2.577C-1.447,2.175 -0.551,1.955 0.653,1.917L1.98,1.875L1.98,1.466C1.98,0.975 1.865,0.608 1.635,0.366C1.406,0.123 1.051,0.002 0.57,0.002C0.176,0.002 -0.201,0.059 -0.562,0.174C-0.923,0.29 -1.27,0.426 -1.604,0.585L-2.132,-0.583C-1.715,-0.801 -1.259,-0.965 -0.764,-1.079C-0.269,-1.192 0.199,-1.249 0.639,-1.249C1.616,-1.249 2.353,-1.037 2.851,-0.611C3.348,-0.184 3.598,0.484 3.598,1.397L3.598,6.57L2.431,6.57Z" style="fill:white;fill-rule:nonzero;"/>
                </g>
                <g transform="matrix(1,0,0,1,459.912,2792.63)">
                    <path d="M0,-5.987C0,-5.505 0.124,-5.134 0.372,-4.875C0.619,-4.616 0.974,-4.486 1.437,-4.486C2.382,-4.486 2.855,-4.992 2.855,-6C2.855,-6.501 2.737,-6.886 2.504,-7.156C2.27,-7.427 1.914,-7.563 1.437,-7.563C0.965,-7.563 0.608,-7.429 0.364,-7.161C0.122,-6.891 0,-6.501 0,-5.987M-0.701,0.402C-0.701,0.755 -0.543,1.025 -0.225,1.216C0.091,1.404 0.537,1.499 1.111,1.499C2,1.499 2.662,1.373 3.097,1.118C3.532,0.863 3.75,0.524 3.75,0.104C3.75,-0.229 3.631,-0.467 3.392,-0.608C3.154,-0.749 2.71,-0.82 2.062,-0.82L0.827,-0.82C0.359,-0.82 -0.013,-0.71 -0.288,-0.49C-0.564,-0.271 -0.701,0.027 -0.701,0.402M5.333,-8.473L5.333,-7.577L4.021,-7.334C4.141,-7.172 4.241,-6.972 4.319,-6.737C4.398,-6.501 4.437,-6.251 4.437,-5.987C4.437,-5.195 4.164,-4.573 3.618,-4.119C3.072,-3.665 2.319,-3.438 1.361,-3.438C1.115,-3.438 0.894,-3.457 0.694,-3.494C0.343,-3.277 0.166,-3.022 0.166,-2.729C0.166,-2.554 0.249,-2.421 0.413,-2.333C0.578,-2.245 0.879,-2.202 1.319,-2.202L2.66,-2.202C3.507,-2.202 4.151,-2.021 4.591,-1.661C5.03,-1.299 5.25,-0.778 5.25,-0.098C5.25,0.773 4.891,1.445 4.174,1.917C3.456,2.388 2.419,2.624 1.062,2.624C0.016,2.624 -0.783,2.44 -1.334,2.07C-1.885,1.698 -2.16,1.171 -2.16,0.485C-2.16,0.013 -2.011,-0.383 -1.712,-0.706C-1.413,-1.027 -0.995,-1.25 -0.458,-1.375C-0.676,-1.468 -0.855,-1.617 -0.997,-1.823C-1.138,-2.029 -1.208,-2.245 -1.208,-2.473C-1.208,-2.759 -1.128,-3.003 -0.965,-3.202C-0.804,-3.4 -0.562,-3.598 -0.243,-3.792C-0.642,-3.963 -0.964,-4.243 -1.212,-4.629C-1.46,-5.015 -1.584,-5.469 -1.584,-5.987C-1.584,-6.819 -1.321,-7.466 -0.795,-7.924C-0.27,-8.382 0.479,-8.611 1.452,-8.611C1.669,-8.611 1.897,-8.597 2.135,-8.566C2.374,-8.536 2.553,-8.505 2.674,-8.473L5.333,-8.473Z" style="fill:white;fill-rule:nonzero;"/>
                </g>
                <g transform="matrix(1,0,0,1,476.835,2790.74)">
                    <path d="M0,-5.485C-0.518,-5.485 -0.934,-5.321 -1.247,-4.992C-1.559,-4.663 -1.746,-4.184 -1.805,-3.555L1.681,-3.555C1.671,-4.189 1.519,-4.67 1.223,-4.995C0.926,-5.322 0.518,-5.485 0,-5.485M0.299,1.236C-0.896,1.236 -1.83,0.889 -2.503,0.192C-3.177,-0.505 -3.513,-1.464 -3.513,-2.687C-3.513,-3.941 -3.201,-4.928 -2.576,-5.645C-1.951,-6.362 -1.092,-6.721 0,-6.721C1.014,-6.721 1.815,-6.414 2.403,-5.798C2.991,-5.183 3.285,-4.334 3.285,-3.256L3.285,-2.374L-1.833,-2.374C-1.81,-1.628 -1.609,-1.056 -1.229,-0.656C-0.849,-0.254 -0.315,-0.054 0.375,-0.054C0.829,-0.054 1.252,-0.097 1.643,-0.184C2.034,-0.269 2.454,-0.411 2.903,-0.61L2.903,0.717C2.505,0.907 2.102,1.041 1.694,1.118C1.288,1.198 0.822,1.236 0.299,1.236" style="fill:white;fill-rule:nonzero;"/>
                </g>
                <g transform="matrix(1,0,0,1,495.842,2784.02)">
                    <path d="M0,7.819L-1.638,7.819L-1.638,3.097C-1.638,2.505 -1.758,2.062 -1.996,1.77C-2.234,1.479 -2.613,1.332 -3.132,1.332C-3.822,1.332 -4.326,1.537 -4.645,1.944C-4.965,2.352 -5.125,3.035 -5.125,3.992L-5.125,7.819L-6.757,7.819L-6.757,0.138L-5.479,0.138L-5.25,1.145L-5.166,1.145C-4.935,0.779 -4.607,0.497 -4.18,0.298C-3.755,0.099 -3.282,0 -2.764,0C-0.921,0 0,0.938 0,2.811L0,7.819Z" style="fill:white;fill-rule:nonzero;"/>
                </g>
                <g transform="matrix(1,0,0,1,508.322,2784.02)">
                    <path d="M0,7.957C-1.162,7.957 -2.045,7.619 -2.649,6.94C-3.253,6.262 -3.555,5.288 -3.555,4.019C-3.555,2.729 -3.24,1.735 -2.608,1.041C-1.975,0.347 -1.062,0 0.132,0C0.942,0 1.671,0.15 2.319,0.451L1.827,1.763C1.137,1.495 0.567,1.361 0.118,1.361C-1.21,1.361 -1.875,2.242 -1.875,4.006C-1.875,4.868 -1.71,5.514 -1.378,5.948C-1.047,6.38 -0.562,6.596 0.076,6.596C0.804,6.596 1.491,6.416 2.139,6.054L2.139,7.479C1.847,7.65 1.536,7.773 1.205,7.846C0.874,7.921 0.472,7.957 0,7.957" style="fill:white;fill-rule:nonzero;"/>
                </g>
                <g transform="matrix(1,0,0,1,518.211,2795.25)">
                    <path d="M0,-11.097L1.778,-11.097L3.341,-6.743C3.577,-6.122 3.734,-5.539 3.812,-4.993L3.868,-4.993C3.909,-5.247 3.987,-5.556 4.097,-5.919C4.208,-6.284 4.797,-8.009 5.861,-11.097L7.625,-11.097L4.34,-2.395C3.743,-0.798 2.748,0 1.355,0C0.993,0 0.641,-0.039 0.299,-0.118L0.299,-1.409C0.544,-1.354 0.824,-1.327 1.139,-1.327C1.926,-1.327 2.479,-1.782 2.798,-2.695L3.083,-3.416L0,-11.097Z" style="fill:white;fill-rule:nonzero;"/>
                </g>
                <g transform="matrix(1,0,0,1,538,2786.69)">
                    <path d="M0,0.252L-3.212,4.053L-4.305,3.39L-1.625,0.112L-4.305,-3.157L-3.212,-3.801L0,-0L0,0.252Z" style="fill:white;fill-rule:nonzero;"/>
                </g>
            </g>
        </g>
        <g transform="matrix(1,0,0,1,0.220187,-0.220187)">
            <g transform="matrix(1,0,0,1,362.091,2737.89)">
                <path d="M0,31.868L-5.372,31.868L-21.214,9.198L-21.214,31.868L-26.541,31.868L-26.541,0L-21.169,0L-5.281,22.672L-5.281,0L0,0L0,31.868Z" style="fill:white;fill-rule:nonzero;"/>
            </g>
            <g transform="matrix(1,0,0,1,0,2540.51)">
                <rect x="372.876" y="197.388" width="5.327" height="31.868" style="fill:white;"/>
            </g>
            <g transform="matrix(1,0,0,1,411.297,2745.86)">
                <path d="M0,15.933L3.733,19.712C0.865,22.58 -3.096,24.355 -7.511,24.355C-16.297,24.355 -23.491,17.982 -23.491,7.967C-23.491,-1.639 -16.844,-8.422 -7.511,-8.422C-3.096,-8.422 0.865,-6.647 3.733,-3.733L0,0C-1.912,-1.913 -4.598,-3.095 -7.511,-3.095C-14.067,-3.095 -18.073,1.548 -18.073,7.967C-18.073,14.795 -13.384,19.029 -7.511,19.029C-4.598,19.029 -1.912,17.846 0,15.933" style="fill:white;fill-rule:nonzero;"/>
            </g>
            <g transform="matrix(1,0,0,1,429.138,2745.27)">
                <path d="M0,16.206L7.74,16.206L3.87,5.144L0,16.206ZM9.469,20.805L-1.73,20.805L-3.095,24.492L-8.831,24.492L3.87,-8.286L16.617,24.492L10.881,24.492L9.469,20.805Z" style="fill:white;fill-rule:nonzero;"/>
            </g>
            <g transform="matrix(1,0,0,1,458.042,2756.47)">
                <path d="M0,-5.281L5.281,-5.281C5.281,-5.281 10.607,-5.281 10.607,-9.286C10.607,-13.247 5.281,-13.247 5.281,-13.247L0,-13.247L0,-5.281ZM4.324,-0L0,-0L0,13.293L-5.327,13.293L-5.327,-18.574L5.281,-18.574C5.281,-18.574 15.933,-18.574 15.933,-9.286C15.933,-4.142 12.655,-1.866 9.788,-0.819L16.297,13.293L10.425,13.293L4.324,-0Z" style="fill:white;fill-rule:nonzero;"/>
            </g>
            <g transform="matrix(1,0,0,1,488.676,2745.27)">
                <path d="M0,16.206L7.74,16.206L3.87,5.144L0,16.206ZM9.469,20.805L-1.73,20.805L-3.095,24.492L-8.831,24.492L3.87,-8.286L16.616,24.492L10.881,24.492L9.469,20.805Z" style="fill:white;fill-rule:nonzero;"/>
            </g>
            <g transform="matrix(1,0,0,1,526.777,2764.98)">
                <path d="M0,-22.308C-13.748,-22.308 -13.794,0.046 0,0.046C13.794,0.046 13.794,-22.308 0,-22.308M0,5.189C-21.032,5.189 -20.987,-27.497 0,-27.497C20.895,-27.497 20.941,5.189 0,5.189" style="fill:white;fill-rule:nonzero;"/>
            </g>
        </g>
        <g opacity="0.6">
            <g transform="matrix(1,0,0,1,316.775,2773.21)">
                <path d="M0,-30.268C0,-32.63 1.926,-34.618 4.35,-34.618C6.774,-34.618 8.701,-32.63 8.701,-30.268C8.701,-27.844 6.774,-25.855 4.35,-25.855C1.926,-25.855 0,-27.844 0,-30.268M0.248,-6.464L8.266,-6.464L3.107,4.35L-2.3,4.35L0.248,-6.464Z" style="fill:white;fill-rule:nonzero;"/>
            </g>
            <g transform="matrix(1,0,0,1,259.022,2737.36)">
                <path d="M0,34.709L7.734,34.709L7.734,23.537L0,33.312L0,34.709ZM0.024,23.35L0,29.97L23.714,0L18.499,0L0.024,23.35ZM34.713,4.209L27.639,4.209C26.443,4.209 25.474,5.178 25.474,6.373L30.57,6.373C29.312,6.717 28.383,7.856 28.383,9.224L28.383,9.478L33.974,9.478L31.936,11.516C32.786,12.366 34.163,12.366 35.013,11.516L36.763,9.766L36.763,6.259C36.763,5.127 35.846,4.209 34.713,4.209M15.654,0L11.657,0L11.657,5.389L15.654,0.337L15.654,0ZM3.997,15.07L3.997,0L0,0L0.024,20.091L3.997,15.07ZM9.732,0L5.736,0L5.736,12.872L9.732,7.821L9.732,0Z" style="fill:white;fill-rule:nonzero;"/>
            </g>
            <g transform="matrix(1,0,0,1,305.379,2755.32)">
                <path d="M0,-1.347C-0.199,-1.408 -0.395,-1.5 -0.589,-1.622C-0.976,-1.866 -1.301,-2.192 -1.567,-2.6C-1.907,-3.124 -2.164,-3.682 -2.337,-4.277C-2.344,-4.329 -2.352,-4.382 -2.359,-4.435L-2.359,-24.202C-2.359,-24.763 -2.814,-25.217 -3.375,-25.217L-17.577,-25.217L-17.577,-20.427L-7.687,-20.427L-4.425,-0.743C-4.425,-0.743 -4.293,-0.155 -4.864,-0.004C-4.947,0.018 -8.172,-0.004 -8.172,-0.004C-8.172,-0.004 -10.905,1.657 -11.956,2.296C-10.712,2.293 -9.467,2.308 -8.222,2.289C-7.7,2.281 -7.257,4.947 -6.979,5.686C-6.831,6.082 -7.064,6.408 -7.46,6.4C-8.616,6.377 -9.772,6.391 -10.928,6.394C-11.185,6.395 -11.498,6.321 -11.691,6.437C-12.369,6.844 -13.394,7.485 -14.209,7.999C-14.585,8.236 -14.415,8.816 -13.971,8.816L-7.57,8.816C-7.421,8.816 -7.3,8.937 -7.3,9.086L-7.3,10.773C-7.3,10.926 -7.417,11.05 -7.57,11.05C-8.488,11.05 -9.661,11.049 -10.601,11.049C-11.264,11.049 -11.877,11.498 -11.988,12.152C-12.129,12.986 -11.489,13.715 -10.674,13.715L-9.327,13.716L-8.299,17.569C-8.096,18.332 -8.67,19.08 -9.459,19.08L-17.577,19.08L-17.577,23.87L-3.375,23.87C-2.814,23.87 -2.359,23.415 -2.359,22.854L-2.359,7.668C-2.23,6.995 -1.962,6.391 -1.536,5.865C-1.047,5.262 -0.493,4.848 0.126,4.624C0.426,4.515 0.603,4.204 0.603,3.885L0.603,-0.59C0.603,-0.952 0.346,-1.241 0,-1.347" style="fill:white;fill-rule:nonzero;"/>
            </g>
            <g transform="matrix(1,0,0,1,266.976,2779.19)">
                <path d="M0,-49.088L-14.124,-49.088C-14.685,-49.088 -15.14,-48.633 -15.14,-48.072L-15.14,-28.305C-15.147,-28.252 -15.155,-28.2 -15.162,-28.147C-15.335,-27.553 -15.592,-26.994 -15.932,-26.47C-16.198,-26.063 -16.523,-25.737 -16.91,-25.493C-17.104,-25.37 -17.3,-25.279 -17.499,-25.218C-17.845,-25.111 -18.102,-24.823 -18.102,-24.461L-18.102,-19.985C-18.102,-19.667 -17.925,-19.356 -17.626,-19.247C-17.006,-19.022 -16.452,-18.608 -15.963,-18.006C-15.537,-17.48 -15.269,-16.876 -15.14,-16.203L-15.14,-1.016C-15.14,-0.455 -14.685,0 -14.124,0L0,0L0,-4.791L-10.35,-4.791L-10.35,-19.658C-10.355,-20.103 -10.439,-20.547 -10.636,-20.946C-10.902,-21.486 -11.261,-21.967 -11.713,-22.39C-11.284,-22.765 -10.949,-23.187 -10.707,-23.657C-10.472,-24.114 -10.355,-24.605 -10.35,-25.128L-10.35,-44.297L0,-44.297L0,-49.088Z" style="fill:white;fill-rule:nonzero;"/>
            </g>
            <g transform="matrix(1,0,0,1,274.129,2747.57)">
                <path d="M0,18.096L-2,16.513C-2.991,15.729 -3.159,14.291 -2.374,13.299L8.149,0L10.149,1.583C11.139,2.367 11.307,3.805 10.523,4.797L0,18.096Z" style="fill:white;fill-rule:nonzero;"/>
            </g>
        </g>
    </g>
</svg>
